<svg xmlns="http://www.w3.org/2000/svg" viewBox="0 0 110 110" fill="none" stroke="#fff" stroke-linecap="round" stroke-linejoin="round">
  <!-- Esfera del logo de ORMEN, redibujada en vector. Blanca: va sobre fondo azul. -->
  <title>ORMEN</title>
  <defs>
    <clipPath id="dentro"><circle cx="55" cy="55" r="53"/></clipPath>
  </defs>
  <!-- Contorno (dos trazos levemente corridos, como en el original) -->
  <circle cx="55" cy="55" r="52.5" stroke-width="2.4"/>
  <circle cx="54" cy="56" r="51.2" stroke-width="1.3" opacity=".7"/>
  <!-- Conexiones (recortadas al contorno) -->
  <g stroke-width="3.4" clip-path="url(#dentro)">
    <path d="M2 31 Q15 29 29 28 Q44 25 58 21"/>
    <path d="M29 28 Q26 42 29 58"/>
    <path d="M29 28 Q30 16 24 4"/>
    <path d="M58 21 Q56 10 57 0"/>
    <path d="M58 21 Q76 8 103 22"/>
    <path d="M58 21 L48 34"/>
    <path d="M48 34 Q36 44 30 58"/>
    <path d="M48 34 Q72 46 93 64"/>
    <path d="M58 25 Q82 33 103 47"/>
    <path d="M30 58 Q38 76 49 91"/>
    <path d="M29 58 Q21 78 24 94 Q27 102 32 110"/>
    <path d="M0 93 Q24 92 49 91"/>
    <path d="M49 91 Q72 80 93 64"/>
    <path d="M49 91 Q58 101 70 110"/>
    <path d="M93 64 Q99 55 103 47"/>
    <path d="M103 47 Q110 46 112 48"/>
    <path d="M93 64 Q102 80 88 100"/>
  </g>
  <!-- Nodos -->
  <g fill="#fff" stroke="none">
    <circle cx="29" cy="28" r="4.6"/>
    <circle cx="58" cy="21" r="3"/>
    <circle cx="48" cy="34" r="5.8"/>
    <circle cx="30" cy="58" r="8.4"/>
    <circle cx="93" cy="64" r="6.4"/>
    <circle cx="103" cy="47" r="4.4"/>
    <circle cx="49" cy="91" r="5.8"/>
  </g>
</svg>
